<mxfile host="app.diagrams.net" modified="2023-07-19T19:32:38.057Z" agent="Mozilla/5.0 (Windows NT 10.0; Win64; x64) AppleWebKit/537.36 (KHTML, like Gecko) Chrome/114.0.0.0 Safari/537.36" etag="CSSXCKJVgtKHNZVOMcRL" version="21.6.2" type="github" pages="2">
  <diagram name="Página-1" id="2y5C5awGx7r07g59Db29">
    <mxGraphModel dx="1642" dy="924" grid="1" gridSize="10" guides="1" tooltips="1" connect="1" arrows="1" fold="1" page="1" pageScale="0.5" pageWidth="827" pageHeight="1169" math="0" shadow="0">
      <root>
        <mxCell id="0" />
        <mxCell id="1" parent="0" />
        <mxCell id="n1fT03MUKg-2cWNcU8vf-1" value="" style="group" vertex="1" connectable="0" parent="1">
          <mxGeometry width="826.5" height="584" as="geometry" />
        </mxCell>
        <mxCell id="NzlXMEpunxxJDrKHXwzi-3" value="" style="rounded=0;whiteSpace=wrap;html=1;gradientColor=#00FFFF;gradientDirection=north;" vertex="1" parent="n1fT03MUKg-2cWNcU8vf-1">
          <mxGeometry x="0.5" width="826" height="584" as="geometry" />
        </mxCell>
        <mxCell id="eM6mYcKn4AY1nrG-l5ZO-22" value="" style="group;perimeterSpacing=1;" parent="n1fT03MUKg-2cWNcU8vf-1" vertex="1" connectable="0">
          <mxGeometry width="820" height="130" as="geometry" />
        </mxCell>
        <mxCell id="eM6mYcKn4AY1nrG-l5ZO-5" value="" style="rounded=0;whiteSpace=wrap;html=1;fillColor=#fff2cc;strokeColor=#d6b656;" parent="eM6mYcKn4AY1nrG-l5ZO-22" vertex="1">
          <mxGeometry width="820" height="60" as="geometry" />
        </mxCell>
        <mxCell id="eM6mYcKn4AY1nrG-l5ZO-4" value="&lt;font style=&quot;vertical-align: inherit;&quot;&gt;&lt;font style=&quot;vertical-align: inherit;&quot;&gt;logo&lt;/font&gt;&lt;/font&gt;" style="ellipse;whiteSpace=wrap;html=1;align=center;" parent="eM6mYcKn4AY1nrG-l5ZO-22" vertex="1">
          <mxGeometry x="35" y="10" width="50" height="40" as="geometry" />
        </mxCell>
        <mxCell id="eM6mYcKn4AY1nrG-l5ZO-8" value="" style="shape=delay;whiteSpace=wrap;html=1;strokeColor=#b85450;shadow=0;fillColor=#f8cecc;" parent="eM6mYcKn4AY1nrG-l5ZO-22" vertex="1">
          <mxGeometry x="270" y="10" width="450" height="40" as="geometry" />
        </mxCell>
        <mxCell id="eM6mYcKn4AY1nrG-l5ZO-12" value="" style="sketch=0;outlineConnect=0;fontColor=#232F3E;gradientColor=none;fillColor=#232F3D;strokeColor=none;dashed=0;verticalLabelPosition=bottom;verticalAlign=top;align=center;html=1;fontSize=12;fontStyle=0;aspect=fixed;pointerEvents=1;shape=mxgraph.aws4.magnifying_glass;" parent="eM6mYcKn4AY1nrG-l5ZO-22" vertex="1">
          <mxGeometry x="280" y="18.5" width="28" height="28" as="geometry" />
        </mxCell>
        <mxCell id="eM6mYcKn4AY1nrG-l5ZO-14" value="" style="html=1;verticalLabelPosition=bottom;align=center;labelBackgroundColor=#ffffff;verticalAlign=top;strokeWidth=2;strokeColor=#0080F0;shadow=0;dashed=0;shape=mxgraph.ios7.icons.user;" parent="eM6mYcKn4AY1nrG-l5ZO-22" vertex="1">
          <mxGeometry x="770" y="15" width="30" height="30" as="geometry" />
        </mxCell>
        <mxCell id="eM6mYcKn4AY1nrG-l5ZO-21" value="" style="verticalLabelPosition=bottom;html=1;verticalAlign=top;align=center;strokeColor=none;fillColor=#00BEF2;shape=mxgraph.azure.azure_marketplace;" parent="eM6mYcKn4AY1nrG-l5ZO-22" vertex="1">
          <mxGeometry x="220" y="12.5" width="30" height="35" as="geometry" />
        </mxCell>
        <mxCell id="eM6mYcKn4AY1nrG-l5ZO-42" value="&lt;font face=&quot;Helvetica&quot;&gt;Busqueda&lt;/font&gt;" style="text;html=1;strokeColor=none;fillColor=none;align=center;verticalAlign=middle;whiteSpace=wrap;rounded=0;fontStyle=1;labelPosition=center;verticalLabelPosition=middle;fontFamily=Times New Roman;" parent="eM6mYcKn4AY1nrG-l5ZO-22" vertex="1">
          <mxGeometry x="650" y="15" width="60" height="30" as="geometry" />
        </mxCell>
        <mxCell id="ns1k_ws4NNBBeZV5i1AT-6" value="" style="group" vertex="1" connectable="0" parent="eM6mYcKn4AY1nrG-l5ZO-22">
          <mxGeometry x="10" y="70" width="810" height="60" as="geometry" />
        </mxCell>
        <mxCell id="vqzFlxOl4RlhwdYy7OfV-75" value="" style="rounded=0;whiteSpace=wrap;html=1;imageAspect=1;absoluteArcSize=0;strokeColor=#b85450;fillColor=#f8cecc;" parent="ns1k_ws4NNBBeZV5i1AT-6" vertex="1">
          <mxGeometry x="670" width="140" height="60" as="geometry" />
        </mxCell>
        <mxCell id="vqzFlxOl4RlhwdYy7OfV-81" value="" style="rounded=0;whiteSpace=wrap;html=1;fillColor=#f8cecc;strokeColor=#b85450;" parent="ns1k_ws4NNBBeZV5i1AT-6" vertex="1">
          <mxGeometry x="500" width="150" height="60" as="geometry" />
        </mxCell>
        <mxCell id="vqzFlxOl4RlhwdYy7OfV-80" value="" style="rounded=0;whiteSpace=wrap;html=1;fillColor=#f8cecc;strokeColor=#b85450;" parent="ns1k_ws4NNBBeZV5i1AT-6" vertex="1">
          <mxGeometry x="170" width="150" height="60" as="geometry" />
        </mxCell>
        <mxCell id="vqzFlxOl4RlhwdYy7OfV-82" value="" style="rounded=0;whiteSpace=wrap;html=1;fillColor=#f8cecc;strokeColor=#b85450;" parent="ns1k_ws4NNBBeZV5i1AT-6" vertex="1">
          <mxGeometry x="330" width="150" height="60" as="geometry" />
        </mxCell>
        <mxCell id="vqzFlxOl4RlhwdYy7OfV-41" value="" style="rounded=0;whiteSpace=wrap;html=1;rotatable=0;deletable=1;strokeWidth=1;perimeterSpacing=0;imageAspect=0;metaEdit=0;backgroundOutline=0;allowArrows=0;comic=0;resizeWidth=0;treeMoving=0;enumerate=0;noLabel=0;strokeOpacity=100;portConstraint=none;resizeHeight=0;fillOpacity=100;overflow=visible;direction=west;imageHeight=24;absoluteArcSize=1;fillColor=#f8cecc;strokeColor=#b85450;" parent="ns1k_ws4NNBBeZV5i1AT-6" vertex="1">
          <mxGeometry width="155" height="60" as="geometry" />
        </mxCell>
        <mxCell id="ns1k_ws4NNBBeZV5i1AT-5" value="" style="group;fillColor=#dae8fc;strokeColor=#6c8ebf;" vertex="1" connectable="0" parent="n1fT03MUKg-2cWNcU8vf-1">
          <mxGeometry x="15" y="150" width="795" height="240" as="geometry" />
        </mxCell>
        <mxCell id="ns1k_ws4NNBBeZV5i1AT-1" value="" style="rounded=0;whiteSpace=wrap;html=1;fillColor=#d5e8d4;strokeColor=#82b366;" vertex="1" parent="ns1k_ws4NNBBeZV5i1AT-5">
          <mxGeometry width="795" height="240" as="geometry" />
        </mxCell>
        <mxCell id="ns1k_ws4NNBBeZV5i1AT-2" value="" style="ellipse;whiteSpace=wrap;html=1;aspect=fixed;" vertex="1" parent="ns1k_ws4NNBBeZV5i1AT-5">
          <mxGeometry x="362.27848101265823" y="220" width="10" height="10" as="geometry" />
        </mxCell>
        <mxCell id="ns1k_ws4NNBBeZV5i1AT-3" value="" style="ellipse;whiteSpace=wrap;html=1;aspect=fixed;" vertex="1" parent="ns1k_ws4NNBBeZV5i1AT-5">
          <mxGeometry x="422.65822784810126" y="220" width="10" height="10" as="geometry" />
        </mxCell>
        <mxCell id="ns1k_ws4NNBBeZV5i1AT-4" value="" style="ellipse;whiteSpace=wrap;html=1;aspect=fixed;fillColor=#000000;" vertex="1" parent="ns1k_ws4NNBBeZV5i1AT-5">
          <mxGeometry x="392.46835443037975" y="220" width="10" height="10" as="geometry" />
        </mxCell>
        <mxCell id="ns1k_ws4NNBBeZV5i1AT-12" value="" style="group" vertex="1" connectable="0" parent="n1fT03MUKg-2cWNcU8vf-1">
          <mxGeometry x="20" y="420" width="220" height="80" as="geometry" />
        </mxCell>
        <mxCell id="ns1k_ws4NNBBeZV5i1AT-7" value="" style="whiteSpace=wrap;html=1;aspect=fixed;" vertex="1" parent="ns1k_ws4NNBBeZV5i1AT-12">
          <mxGeometry width="80" height="80" as="geometry" />
        </mxCell>
        <mxCell id="ns1k_ws4NNBBeZV5i1AT-9" value="nombre del producto" style="text;html=1;strokeColor=none;fillColor=none;align=center;verticalAlign=middle;whiteSpace=wrap;rounded=0;" vertex="1" parent="ns1k_ws4NNBBeZV5i1AT-12">
          <mxGeometry x="90" width="130" height="30" as="geometry" />
        </mxCell>
        <mxCell id="ns1k_ws4NNBBeZV5i1AT-11" value="detalles" style="rounded=1;whiteSpace=wrap;html=1;" vertex="1" parent="ns1k_ws4NNBBeZV5i1AT-12">
          <mxGeometry x="105" y="30" width="100" height="40" as="geometry" />
        </mxCell>
        <mxCell id="ns1k_ws4NNBBeZV5i1AT-13" value="" style="group" vertex="1" connectable="0" parent="n1fT03MUKg-2cWNcU8vf-1">
          <mxGeometry x="540" y="420" width="220" height="80" as="geometry" />
        </mxCell>
        <mxCell id="ns1k_ws4NNBBeZV5i1AT-14" value="" style="whiteSpace=wrap;html=1;aspect=fixed;" vertex="1" parent="ns1k_ws4NNBBeZV5i1AT-13">
          <mxGeometry width="80" height="80" as="geometry" />
        </mxCell>
        <mxCell id="ns1k_ws4NNBBeZV5i1AT-15" value="nombre del producto" style="text;html=1;strokeColor=none;fillColor=none;align=center;verticalAlign=middle;whiteSpace=wrap;rounded=0;" vertex="1" parent="ns1k_ws4NNBBeZV5i1AT-13">
          <mxGeometry x="90" width="130" height="30" as="geometry" />
        </mxCell>
        <mxCell id="ns1k_ws4NNBBeZV5i1AT-16" value="detalles" style="rounded=1;whiteSpace=wrap;html=1;" vertex="1" parent="ns1k_ws4NNBBeZV5i1AT-13">
          <mxGeometry x="105" y="30" width="100" height="40" as="geometry" />
        </mxCell>
      </root>
    </mxGraphModel>
  </diagram>
  <diagram id="IvpomGC3Xca4kS0brtkt" name="Página-2">
    <mxGraphModel dx="2514" dy="1491" grid="1" gridSize="10" guides="1" tooltips="1" connect="1" arrows="1" fold="1" page="1" pageScale="1" pageWidth="827" pageHeight="1169" math="0" shadow="0">
      <root>
        <mxCell id="0" />
        <mxCell id="1" parent="0" />
      </root>
    </mxGraphModel>
  </diagram>
</mxfile>
